<svg width="5529" height="5530" viewBox="0 0 5529 5530" fill="none" xmlns="http://www.w3.org/2000/svg">
<path fill-rule="evenodd" clip-rule="evenodd" d="M4892.93 1267.29H1231.58L804.47 840.099C782.882 818.562 753.638 806.464 723.147 806.458H266.083C226.144 806.459 189.057 827.153 168.075 861.142C147.094 895.132 145.213 937.567 163.106 973.28L739.043 2125.36C758.572 2164.34 798.429 2188.96 842.021 2188.96H2613.83L1428.33 3374.68C1395.29 3407.64 1385.4 3457.26 1403.26 3500.37C1421.13 3543.47 1463.22 3571.54 1509.88 3571.46H2336C2366.49 3571.45 2395.74 3559.35 2417.32 3537.82L3765.71 2188.96H4917.58C5053.33 2188.99 5182.19 2129.14 5269.76 2025.39C5357.32 1921.64 5394.69 1784.55 5371.88 1650.7C5326.18 1423.73 5124.37 1262.18 4892.93 1267.29Z" stroke="black" stroke-width="50" stroke-linecap="round" stroke-linejoin="round"/>
<path d="M3765.71 1267.29L2647.47 148.849C2625.88 127.312 2596.64 115.215 2566.15 115.208H1970.4C1923.74 115.125 1881.65 143.195 1863.78 186.3C1845.92 229.405 1855.81 279.031 1888.84 311.984L2844.21 1267.29" stroke="black" stroke-width="50" stroke-linecap="round" stroke-linejoin="round"/>
<path fill-rule="evenodd" clip-rule="evenodd" d="M4568.34 4654.42C4706.85 4492.44 4938.35 4446.61 5128.12 4543.59C5317.88 4640.57 5416.39 4855.05 5366.33 5062.22C5316.27 5269.4 5130.69 5415.2 4917.59 5414.79H3880.9C3508.15 5414.91 3202.46 5119.37 3189.94 4746.76C3177.42 4374.16 3462.57 4058.75 3834.48 4033.84C4206.4 4008.92 4531.06 4283.47 4568.34 4654.42" fill="#43BBFF"/>
<path d="M4568.34 4654.42C4706.85 4492.44 4938.35 4446.61 5128.12 4543.59C5317.88 4640.57 5416.39 4855.05 5366.33 5062.22C5316.27 5269.4 5130.69 5415.2 4917.59 5414.79H3880.9C3508.15 5414.91 3202.46 5119.37 3189.94 4746.76C3177.42 4374.16 3462.57 4058.75 3834.48 4033.84C4206.4 4008.92 4531.06 4283.47 4568.34 4654.42" stroke="black" stroke-linecap="round" stroke-linejoin="round"/>
</svg>
